<svg width="189" height="188" viewBox="0 0 189 188" fill="none" xmlns="http://www.w3.org/2000/svg">
<circle cx="94" cy="94" r="94" fill="url(#paint0_linear_20_92)"/>
<line x1="27.25" y1="27" x2="27.25" y2="160" stroke="white" stroke-width="0.5"/>
<line x1="27" y1="27.75" x2="160" y2="27.75" stroke="white" stroke-width="0.5"/>
<line x1="8" y1="55.75" x2="179" y2="55.75" stroke="white" stroke-width="0.5"/>
<line y1="75.75" x2="186" y2="75.75" stroke="white" stroke-width="0.5"/>
<line y1="94.75" x2="189" y2="94.75" stroke="white" stroke-width="0.5"/>
<line x1="2" y1="113.75" x2="186" y2="113.75" stroke="white" stroke-width="0.5"/>
<line x1="8" y1="132.75" x2="179" y2="132.75" stroke="white" stroke-width="0.5"/>
<line x1="18" y1="151.75" x2="168" y2="151.75" stroke="white" stroke-width="0.5"/>
<line x1="160.75" y1="161" x2="160.75" y2="28" stroke="white" stroke-width="0.5"/>
<line x1="50.25" y1="11" x2="50.25" y2="177" stroke="white" stroke-width="0.5"/>
<line x1="137.75" y1="177" x2="137.75" y2="11" stroke="white" stroke-width="0.5"/>
<line x1="71.25" y1="3.00137" x2="70.25" y2="185.001" stroke="white" stroke-width="0.5"/>
<line x1="116.75" y1="184.999" x2="117.75" y2="2.99862" stroke="white" stroke-width="0.5"/>
<line x1="91.25" y1="1.09278e-08" x2="91.25" y2="188" stroke="white" stroke-width="0.5"/>
<path d="M91 43.0208L62.3542 91.1458L91 108.333L119.646 91.1458L91 43.0208ZM62.3542 96.875L91 136.979L119.646 96.875L91 114.062L62.3542 96.875Z" fill="url(#paint1_linear_20_92)"/>
<defs>
<linearGradient id="paint0_linear_20_92" x1="94" y1="0" x2="94" y2="188" gradientUnits="userSpaceOnUse">
<stop stop-color="#6173FE"/>
<stop offset="1" stop-color="#683A98"/>
</linearGradient>
<linearGradient id="paint1_linear_20_92" x1="91" y1="43.0208" x2="91" y2="136.979" gradientUnits="userSpaceOnUse">
<stop stop-color="#AE61FE"/>
<stop offset="1" stop-color="#F5F5F5"/>
</linearGradient>
</defs>
</svg>
